<?xml version="1.0" encoding="utf-8"?>
<!-- Svg Vector Icons : http://www.onlinewebfonts.com/icon -->
<!DOCTYPE svg PUBLIC "-//W3C//DTD SVG 1.1//EN" "http://www.w3.org/Graphics/SVG/1.1/DTD/svg11.dtd">
<svg version="1.1" xmlns="http://www.w3.org/2000/svg" xmlns:xlink="http://www.w3.org/1999/xlink" x="0px" y="0px" viewBox="0 0 1000 1000" enable-background="new 0 0 1000 1000" xml:space="preserve">
<metadata> Svg Vector Icons : http://www.onlinewebfonts.com/icon </metadata>
<g><g transform="translate(0.000000,511.000000) scale(0.100000,-0.100000)"><path d="M1197.8,4936.2c-97.2-49.8-173-109-227.5-182.5C804.4,4538.1,813.9,4867.5,821,54.2l7.1-4346.5l54.5-111.4c66.4-135.1,256-310.5,379.2-355.5c71.1-23.7,670.7-30.8,3109.4-30.8h3021.7l109,49.8c130.4,61.6,263.1,187.2,334.2,324.7c52.1,97.2,54.5,123.2,61.6,876.9l7.1,775h-201.4h-203.8v-744.2v-746.6l-56.9-66.3l-56.9-66.4h-3024H1340l-54.5,54.5l-54.5,54.5V106.3v4386.7l66.4,56.9l66.4,56.9h2983.8c2135.3,0,3000.3-7.1,3040.6-26.1c104.3-47.4,111.4-99.5,111.4-862.7v-722.8h201.4h201.4v729.9c0,857.9-7.1,891.1-199.1,1085.4c-218,215.7,54.5,199.1-3355.8,199.1H1344.8L1197.8,4936.2z"/><path d="M7089.5,2078.1l-135.1-137.5l739.4-739.4l741.8-741.8H6094.1H3755V258V56.5h2327.3h2329.6l-734.7-734.7l-734.7-734.7l149.3-146.9l147-149.3l971.7,971.7c535.6,533.2,971.7,981.2,971.7,995.4c0,23.7-1919.6,1955.2-1943.3,1955.2C7231.7,2213.2,7165.3,2151.6,7089.5,2078.1z"/></g></g>
</svg>