<?xml version="1.0" encoding="utf-8"?>
<!-- Svg Vector Icons : http://www.onlinewebfonts.com/icon -->
<!DOCTYPE svg PUBLIC "-//W3C//DTD SVG 1.1//EN" "http://www.w3.org/Graphics/SVG/1.1/DTD/svg11.dtd">
<svg version="1.1" xmlns="http://www.w3.org/2000/svg" xmlns:xlink="http://www.w3.org/1999/xlink" x="0px" y="0px" viewBox="0 0 1000 1000" enable-background="new 0 0 1000 1000" xml:space="preserve">
<metadata> Svg Vector Icons : http://www.onlinewebfonts.com/icon </metadata>
<g><g transform="translate(0.000000,511.000000) scale(0.100000,-0.100000)"><path d="M401.9,2949c-315.7-94.2-391.1-405.3-141.4-593.8c132-99,136.7-99,4745.4-99s4613.5,0,4745.4,99c263.9,197.9,160.2,532.5-183.8,603.2C9374.4,2996.2,533.9,2986.7,401.9,2949z"/><path d="M416.1,536.3C222.8,475,105,352.5,105,211.1c0-169.6,47.1-226.2,249.8-311c150.8-61.3,721-70.7,4618.2-70.7c2450.5,0,4514.5,14.1,4594.6,28.3c344,70.7,447.7,405.3,183.8,603.2c-131.9,99-141.4,99-4665.3,108.4C2593.2,573.9,491.4,559.8,416.1,536.3z"/><path d="M444.3-2055.6c-405.3-99-471.2-523.1-98.9-655c108.4-37.7,1493.8-51.8,4679.4-51.8c4217.6,0,4538.1,4.7,4693.6,84.8c146.1,70.7,164.9,98.9,164.9,263.9c0,146.1-28.3,202.7-131.9,282.7c-131.9,99-136.7,99-4641.8,108.4C2630.9-2022.6,529.1-2032,444.3-2055.6z"/></g></g>
</svg>